<svg xmlns="http://www.w3.org/2000/svg" viewBox="0 0 1200 720" font-family="'Segoe UI','Helvetica Neue',Arial,sans-serif">
<rect width="1200" height="720" fill="#06080f"/>

<!-- Header (simplified) -->
<rect x="0" y="0" width="1200" height="42" fill="#0f1628" stroke="#1c2744" stroke-width="1"/>
<text x="20" y="27" font-size="15" font-weight="700" fill="#38bdf8">RR</text>
<text x="42" y="27" font-size="13" font-weight="600" fill="#e2e8f0">ReqRight</text>
<rect x="0" y="42" width="1200" height="36" fill="#0a0f1c" stroke="#1c2744" stroke-width="1"/>

<!-- Rules tab active -->
<rect x="780" y="10" width="50" height="24" rx="5" fill="#38bdf822" stroke="#38bdf844" stroke-width="0.5"/>
<text x="789" y="26" font-size="10" font-weight="600" fill="#38bdf8">⚙ Rules</text>

<!-- Page header -->
<text x="24" y="100" font-size="18" font-weight="700" fill="#e2e8f0">INCOSE GtWR v4 — 42 Rules Reference</text>
<text x="24" y="118" font-size="12" fill="#a0aec0">14 categories · Adjust weights to prioritize rules for your project context.</text>
<rect x="1018" y="86" width="80" height="22" rx="8" fill="#38bdf822"/>
<text x="1032" y="101" font-size="10" fill="#38bdf8">38/42 active</text>
<rect x="1104" y="86" width="80" height="22" rx="8" fill="#8b5cf622"/>
<text x="1113" y="101" font-size="10" fill="#8b5cf6">12 customized</text>

<!-- Presets card -->
<rect x="24" y="130" width="1156" height="80" rx="10" fill="#141c32" stroke="#1c2744" stroke-width="1"/>
<text x="44" y="153" font-size="12" font-weight="600" fill="#38bdf8">⚡ Weight Presets</text>

<!-- 5 preset buttons -->
<rect x="44" y="162" width="210" height="38" rx="8" fill="transparent" stroke="#1c2744" stroke-width="1"/>
<text x="58" y="178" font-size="11" font-weight="700" fill="#e2e8f0">Equal (Default)</text>
<text x="58" y="192" font-size="9" fill="#6b7fa0">All rules weighted equally</text>

<rect x="264" y="162" width="210" height="38" rx="8" fill="#0c4a6e22" stroke="#38bdf8" stroke-width="1"/>
<text x="278" y="178" font-size="11" font-weight="700" fill="#38bdf8">Safety-Critical</text>
<text x="278" y="192" font-size="9" fill="#6b7fa0">Emphasizes accuracy, completeness</text>

<rect x="484" y="162" width="210" height="38" rx="8" fill="transparent" stroke="#1c2744" stroke-width="1"/>
<text x="498" y="178" font-size="11" font-weight="700" fill="#e2e8f0">Performance-Focused</text>
<text x="498" y="192" font-size="9" fill="#6b7fa0">Tolerances, quantification</text>

<rect x="704" y="162" width="210" height="38" rx="8" fill="transparent" stroke="#1c2744" stroke-width="1"/>
<text x="718" y="178" font-size="11" font-weight="700" fill="#e2e8f0">Compliance-Strict</text>
<text x="718" y="192" font-size="9" fill="#6b7fa0">Max weight, warnings off</text>

<rect x="924" y="162" width="210" height="38" rx="8" fill="transparent" stroke="#1c2744" stroke-width="1"/>
<text x="938" y="178" font-size="11" font-weight="700" fill="#e2e8f0">Minimal Check</text>
<text x="938" y="192" font-size="9" fill="#6b7fa0">Only core rules</text>

<!-- Legend -->
<text x="24" y="232" font-size="10" font-weight="600" fill="#6b7fa0">Weights:</text>
<rect x="80" y="222" width="7" height="7" rx="1" fill="#6b7fa0"/>
<text x="92" y="232" font-size="10" fill="#6b7fa0">Off (0×)</text>
<rect x="148" y="222" width="7" height="7" rx="1" fill="#f59e0b"/>
<text x="160" y="232" font-size="10" fill="#f59e0b">Low (0.5×)</text>
<rect x="224" y="222" width="7" height="7" rx="1" fill="#e2e8f0"/>
<text x="236" y="232" font-size="10" fill="#e2e8f0">Normal (1×)</text>
<rect x="310" y="222" width="7" height="7" rx="1" fill="#38bdf8"/>
<text x="322" y="232" font-size="10" fill="#38bdf8">High (2×)</text>
<rect x="386" y="222" width="7" height="7" rx="1" fill="#ef4444"/>
<text x="398" y="232" font-size="10" fill="#ef4444">Critical (3×)</text>

<!-- Accuracy category -->
<rect x="24" y="248" width="1156" height="280" rx="10" fill="#141c32" stroke="#1c2744" stroke-width="1"/>
<rect x="44" y="264" width="3" height="20" rx="2" fill="#3b82f6"/>
<text x="54" y="280" font-size="14" font-weight="700" fill="#e2e8f0">Accuracy</text>
<text x="122" y="280" font-size="11" fill="#6b7fa0" font-style="monospace">R1–R9</text>
<rect x="176" y="268" width="50" height="16" rx="6" fill="#38bdf822"/>
<text x="186" y="280" font-size="9" fill="#38bdf8">2.3× avg</text>

<!-- R1 row -->
<rect x="44" y="296" width="1116" height="32" rx="6" fill="#0f1628"/>
<text x="58" y="316" font-size="11" font-weight="700" fill="#3b82f6" font-style="monospace">R1</text>
<text x="92" y="316" font-size="11" font-weight="600" fill="#e2e8f0">Structured Statements</text>
<text x="280" y="316" font-size="11" fill="#a0aec0">Conform to agreed patterns</text>
<!-- Weight buttons -->
<rect x="860" y="300" width="35" height="22" rx="4" fill="transparent" stroke="#1c2744" stroke-width="0.5"/>
<text x="869" y="315" font-size="9" fill="#6b7fa0">Off</text>
<rect x="900" y="300" width="35" height="22" rx="4" fill="transparent" stroke="#1c2744" stroke-width="0.5"/>
<text x="908" y="315" font-size="9" fill="#6b7fa0">Low</text>
<rect x="940" y="300" width="48" height="22" rx="4" fill="transparent" stroke="#1c2744" stroke-width="0.5"/>
<text x="948" y="315" font-size="9" fill="#6b7fa0">Normal</text>
<rect x="993" y="300" width="38" height="22" rx="4" fill="transparent" stroke="#1c2744" stroke-width="0.5"/>
<text x="1000" y="315" font-size="9" fill="#6b7fa0">High</text>
<rect x="1036" y="300" width="52" height="22" rx="4" fill="#ef444422" stroke="#ef444488" stroke-width="0.5"/>
<text x="1042" y="315" font-size="9" font-weight="700" fill="#ef4444">Critical</text>

<!-- R2 row -->
<rect x="44" y="334" width="1116" height="32" rx="6" fill="#0f1628"/>
<text x="58" y="354" font-size="11" font-weight="700" fill="#3b82f6" font-style="monospace">R2</text>
<text x="92" y="354" font-size="11" font-weight="600" fill="#e2e8f0">Active Voice</text>
<text x="280" y="354" font-size="11" fill="#a0aec0">Use active voice</text>
<rect x="860" y="338" width="35" height="22" rx="4" fill="transparent" stroke="#1c2744" stroke-width="0.5"/>
<text x="869" y="353" font-size="9" fill="#6b7fa0">Off</text>
<rect x="900" y="338" width="35" height="22" rx="4" fill="transparent" stroke="#1c2744" stroke-width="0.5"/>
<text x="908" y="353" font-size="9" fill="#6b7fa0">Low</text>
<rect x="940" y="338" width="48" height="22" rx="4" fill="transparent" stroke="#1c2744" stroke-width="0.5"/>
<text x="948" y="353" font-size="9" fill="#6b7fa0">Normal</text>
<rect x="993" y="338" width="38" height="22" rx="4" fill="transparent" stroke="#1c2744" stroke-width="0.5"/>
<text x="1000" y="353" font-size="9" fill="#6b7fa0">High</text>
<rect x="1036" y="338" width="52" height="22" rx="4" fill="#ef444422" stroke="#ef444488" stroke-width="0.5"/>
<text x="1042" y="353" font-size="9" font-weight="700" fill="#ef4444">Critical</text>

<!-- R7 row - high weight -->
<rect x="44" y="372" width="1116" height="32" rx="6" fill="#0f1628"/>
<text x="58" y="392" font-size="11" font-weight="700" fill="#3b82f6" font-style="monospace">R7</text>
<text x="92" y="392" font-size="11" font-weight="600" fill="#e2e8f0">Vague Terms</text>
<text x="280" y="392" font-size="11" fill="#a0aec0">Avoid vague terms</text>
<rect x="860" y="376" width="35" height="22" rx="4" fill="transparent" stroke="#1c2744" stroke-width="0.5"/>
<text x="869" y="391" font-size="9" fill="#6b7fa0">Off</text>
<rect x="900" y="376" width="35" height="22" rx="4" fill="transparent" stroke="#1c2744" stroke-width="0.5"/>
<text x="908" y="391" font-size="9" fill="#6b7fa0">Low</text>
<rect x="940" y="376" width="48" height="22" rx="4" fill="transparent" stroke="#1c2744" stroke-width="0.5"/>
<text x="948" y="391" font-size="9" fill="#6b7fa0">Normal</text>
<rect x="993" y="376" width="38" height="22" rx="4" fill="transparent" stroke="#1c2744" stroke-width="0.5"/>
<text x="1000" y="391" font-size="9" fill="#6b7fa0">High</text>
<rect x="1036" y="376" width="52" height="22" rx="4" fill="#ef444422" stroke="#ef444488" stroke-width="0.5"/>
<text x="1042" y="391" font-size="9" font-weight="700" fill="#ef4444">Critical</text>

<!-- R8 row -->
<rect x="44" y="410" width="1116" height="32" rx="6" fill="#0f1628"/>
<text x="58" y="430" font-size="11" font-weight="700" fill="#3b82f6" font-style="monospace">R8</text>
<text x="92" y="430" font-size="11" font-weight="600" fill="#e2e8f0">Escape Clauses</text>
<text x="280" y="430" font-size="11" fill="#a0aec0">Avoid escape clauses</text>
<rect x="860" y="414" width="35" height="22" rx="4" fill="transparent" stroke="#1c2744" stroke-width="0.5"/>
<text x="869" y="429" font-size="9" fill="#6b7fa0">Off</text>
<rect x="900" y="414" width="35" height="22" rx="4" fill="transparent" stroke="#1c2744" stroke-width="0.5"/>
<text x="908" y="429" font-size="9" fill="#6b7fa0">Low</text>
<rect x="940" y="414" width="48" height="22" rx="4" fill="transparent" stroke="#1c2744" stroke-width="0.5"/>
<text x="948" y="429" font-size="9" fill="#6b7fa0">Normal</text>
<rect x="993" y="414" width="38" height="22" rx="4" fill="#38bdf822" stroke="#38bdf888" stroke-width="0.5"/>
<text x="1000" y="429" font-size="9" font-weight="700" fill="#38bdf8">High</text>
<rect x="1036" y="414" width="52" height="22" rx="4" fill="transparent" stroke="#1c2744" stroke-width="0.5"/>
<text x="1042" y="429" font-size="9" fill="#6b7fa0">Critical</text>

<!-- R4 row - warn only, set to Off -->
<rect x="44" y="448" width="1116" height="32" rx="6" fill="#0f162855" opacity="0.5"/>
<text x="58" y="468" font-size="11" font-weight="700" fill="#3b82f6" font-style="monospace" opacity="0.5">R4</text>
<text x="92" y="468" font-size="11" font-weight="600" fill="#e2e8f0" opacity="0.5">Defined Terms</text>
<text x="280" y="468" font-size="11" fill="#a0aec0" opacity="0.5">All terms in glossary</text>
<rect x="860" y="452" width="35" height="22" rx="4" fill="#6b7fa022" stroke="#6b7fa088" stroke-width="0.5"/>
<text x="869" y="467" font-size="9" font-weight="700" fill="#6b7fa0">Off</text>
<rect x="900" y="452" width="35" height="22" rx="4" fill="transparent" stroke="#1c2744" stroke-width="0.5"/>
<text x="908" y="467" font-size="9" fill="#6b7fa0" opacity="0.5">Low</text>

<!-- More rules indicator -->
<text x="600" y="510" font-size="11" fill="#6b7fa0" text-anchor="middle">+ 4 more rules in Accuracy category</text>

<!-- Concision category header -->
<rect x="24" y="540" width="1156" height="52" rx="10" fill="#141c32" stroke="#1c2744" stroke-width="1"/>
<rect x="44" y="556" width="3" height="20" rx="2" fill="#8b5cf6"/>
<text x="54" y="572" font-size="14" font-weight="700" fill="#e2e8f0">Concision</text>
<text x="128" y="572" font-size="11" fill="#6b7fa0" font-style="monospace">R10–R11</text>
<rect x="194" y="560" width="50" height="16" rx="6" fill="#38bdf822"/>
<text x="204" y="572" font-size="9" fill="#38bdf8">2.0× avg</text>

<!-- Non-Ambiguity category -->
<rect x="24" y="600" width="1156" height="52" rx="10" fill="#141c32" stroke="#1c2744" stroke-width="1"/>
<rect x="44" y="616" width="3" height="20" rx="2" fill="#06b6d4"/>
<text x="54" y="632" font-size="14" font-weight="700" fill="#e2e8f0">Non-Ambiguity</text>
<text x="156" y="632" font-size="11" fill="#6b7fa0" font-style="monospace">R12–R17</text>
<rect x="226" y="620" width="50" height="16" rx="6" fill="#e2e8f022"/>
<text x="236" y="632" font-size="9" fill="#e2e8f0">1.5× avg</text>

<!-- Scroll indicator -->
<text x="600" y="674" font-size="10" fill="#6b7fa0" text-anchor="middle">↓ Scroll for 11 more categories: Singularity, Completeness, Realism, Conditions, Uniqueness, Abstraction, Quantifiers, Tolerance, Quantification, Uniformity, Modularity</text>

<!-- Footer -->
<rect x="0" y="700" width="1200" height="20" fill="#06080f"/>
<text x="20" y="714" font-size="9" fill="#4a5370">ReqRight v2.6.0 · Based on INCOSE® GtWR v4 · ISO/IEC/IEEE 29148 · 15288</text>
</svg>
