<svg xmlns="http://www.w3.org/2000/svg" viewBox="0 0 1200 720" font-family="'Segoe UI','Helvetica Neue',Arial,sans-serif">
<rect width="1200" height="720" fill="#06080f"/>

<!-- Header -->
<rect x="0" y="0" width="1200" height="42" fill="#0f1628" stroke="#1c2744" stroke-width="1"/>
<text x="20" y="27" font-size="15" font-weight="700" fill="#38bdf8">RR</text>
<text x="42" y="27" font-size="13" font-weight="600" fill="#e2e8f0">ReqRight</text>
<rect x="0" y="42" width="1200" height="36" fill="#0a0f1c" stroke="#1c2744" stroke-width="1"/>
<!-- Risks tab active -->
<rect x="270" y="48" width="70" height="24" rx="5" fill="#f59e0b22"/>
<text x="280" y="64" font-size="11" font-weight="600" fill="#f59e0b">⚠ Risks</text>

<!-- Page header -->
<text x="24" y="106" font-size="20" font-weight="700" fill="#e2e8f0">Risk Register</text>
<text x="24" y="124" font-size="12" fill="#a0aec0">10 risks · 3 Critical · 4 High · 2 Medium · 1 Low</text>
<rect x="1060" y="92" width="120" height="30" rx="6" fill="#f59e0b"/>
<text x="1084" y="112" font-size="12" font-weight="600" fill="#06080f">+ Add Risk</text>

<!-- Stats cards -->
<rect x="24" y="140" width="180" height="60" rx="8" fill="#141c32" stroke="#1c2744" stroke-width="1"/>
<text x="44" y="172" font-size="22" font-weight="700" fill="#f59e0b">10</text>
<text x="44" y="190" font-size="10" fill="#6b7fa0">Total Risks</text>

<rect x="216" y="140" width="180" height="60" rx="8" fill="#141c32" stroke="#ef444433" stroke-width="1"/>
<text x="236" y="172" font-size="22" font-weight="700" fill="#ef4444">3</text>
<text x="236" y="190" font-size="10" fill="#6b7fa0">Critical (15–25)</text>

<rect x="408" y="140" width="180" height="60" rx="8" fill="#141c32" stroke="#f59e0b33" stroke-width="1"/>
<text x="428" y="172" font-size="22" font-weight="700" fill="#f59e0b">4</text>
<text x="428" y="190" font-size="10" fill="#6b7fa0">High (10–14)</text>

<rect x="600" y="140" width="180" height="60" rx="8" fill="#141c32" stroke="#eab30833" stroke-width="1"/>
<text x="620" y="172" font-size="22" font-weight="700" fill="#eab308">2</text>
<text x="620" y="190" font-size="10" fill="#6b7fa0">Medium (5–9)</text>

<rect x="792" y="140" width="180" height="60" rx="8" fill="#141c32" stroke="#10b98133" stroke-width="1"/>
<text x="812" y="172" font-size="22" font-weight="700" fill="#10b981">1</text>
<text x="812" y="190" font-size="10" fill="#6b7fa0">Low (1–4)</text>

<!-- 5x5 Heat Matrix -->
<rect x="24" y="216" width="440" height="400" rx="10" fill="#141c32" stroke="#1c2744" stroke-width="1"/>
<text x="44" y="244" font-size="13" font-weight="600" fill="#e2e8f0">Likelihood × Impact Matrix</text>

<!-- Y axis label -->
<text x="34" y="386" font-size="10" fill="#6b7fa0" transform="rotate(-90 34 386)">Likelihood →</text>
<!-- X axis label -->
<text x="270" y="604" font-size="10" fill="#6b7fa0" text-anchor="middle">Impact →</text>

<!-- Y axis labels -->
<text x="62" y="272" font-size="9" fill="#6b7fa0">5-AC</text>
<text x="62" y="334" font-size="9" fill="#6b7fa0">4-Lkly</text>
<text x="62" y="396" font-size="9" fill="#6b7fa0">3-Pos</text>
<text x="62" y="458" font-size="9" fill="#6b7fa0">2-Ulk</text>
<text x="62" y="520" font-size="9" fill="#6b7fa0">1-Rare</text>

<!-- X axis labels -->
<text x="136" y="552" font-size="9" fill="#6b7fa0" text-anchor="middle">1-Neg</text>
<text x="208" y="552" font-size="9" fill="#6b7fa0" text-anchor="middle">2-Min</text>
<text x="280" y="552" font-size="9" fill="#6b7fa0" text-anchor="middle">3-Mod</text>
<text x="352" y="552" font-size="9" fill="#6b7fa0" text-anchor="middle">4-Maj</text>
<text x="424" y="552" font-size="9" fill="#6b7fa0" text-anchor="middle">5-Sev</text>

<!-- Grid cells - Row 5 (Almost Certain) -->
<rect x="100" y="258" width="70" height="56" rx="3" fill="#eab30833" stroke="#1c2744" stroke-width="0.5"/>
<text x="135" y="290" font-size="9" fill="#eab308" text-anchor="middle">5</text>
<rect x="172" y="258" width="70" height="56" rx="3" fill="#f59e0b44" stroke="#1c2744" stroke-width="0.5"/>
<text x="207" y="290" font-size="9" fill="#f59e0b" text-anchor="middle">10</text>
<rect x="244" y="258" width="70" height="56" rx="3" fill="#ef444444" stroke="#1c2744" stroke-width="0.5"/>
<text x="279" y="290" font-size="9" fill="#ef4444" text-anchor="middle">15</text>
<rect x="316" y="258" width="70" height="56" rx="3" fill="#ef444466" stroke="#1c2744" stroke-width="0.5"/>
<text x="351" y="282" font-size="9" fill="#ef4444" text-anchor="middle">20</text>
<circle cx="351" cy="294" r="7" fill="#ef4444"/>
<text x="351" y="298" font-size="7" fill="#fff" text-anchor="middle" font-weight="700">1</text>
<rect x="388" y="258" width="70" height="56" rx="3" fill="#ef444488" stroke="#1c2744" stroke-width="0.5"/>
<text x="423" y="282" font-size="9" fill="#ef4444" text-anchor="middle">25</text>
<circle cx="423" cy="294" r="7" fill="#ef4444"/>
<text x="423" y="298" font-size="7" fill="#fff" text-anchor="middle" font-weight="700">1</text>

<!-- Row 4 (Likely) -->
<rect x="100" y="320" width="70" height="56" rx="3" fill="#10b98122" stroke="#1c2744" stroke-width="0.5"/>
<text x="135" y="352" font-size="9" fill="#10b981" text-anchor="middle">4</text>
<rect x="172" y="320" width="70" height="56" rx="3" fill="#eab30833" stroke="#1c2744" stroke-width="0.5"/>
<text x="207" y="352" font-size="9" fill="#eab308" text-anchor="middle">8</text>
<rect x="244" y="320" width="70" height="56" rx="3" fill="#f59e0b44" stroke="#1c2744" stroke-width="0.5"/>
<text x="279" y="342" font-size="9" fill="#f59e0b" text-anchor="middle">12</text>
<circle cx="279" cy="354" r="7" fill="#f59e0b"/>
<text x="279" y="358" font-size="7" fill="#06080f" text-anchor="middle" font-weight="700">2</text>
<rect x="316" y="320" width="70" height="56" rx="3" fill="#ef444444" stroke="#1c2744" stroke-width="0.5"/>
<text x="351" y="342" font-size="9" fill="#ef4444" text-anchor="middle">16</text>
<circle cx="351" cy="354" r="7" fill="#ef4444"/>
<text x="351" y="358" font-size="7" fill="#fff" text-anchor="middle" font-weight="700">1</text>
<rect x="388" y="320" width="70" height="56" rx="3" fill="#ef444466" stroke="#1c2744" stroke-width="0.5"/>
<text x="423" y="352" font-size="9" fill="#ef4444" text-anchor="middle">20</text>

<!-- Row 3 (Possible) -->
<rect x="100" y="382" width="70" height="56" rx="3" fill="#10b98122" stroke="#1c2744" stroke-width="0.5"/>
<text x="135" y="414" font-size="9" fill="#10b981" text-anchor="middle">3</text>
<rect x="172" y="382" width="70" height="56" rx="3" fill="#eab30822" stroke="#1c2744" stroke-width="0.5"/>
<text x="207" y="404" font-size="9" fill="#eab308" text-anchor="middle">6</text>
<circle cx="207" cy="416" r="7" fill="#eab308"/>
<text x="207" y="420" font-size="7" fill="#06080f" text-anchor="middle" font-weight="700">1</text>
<rect x="244" y="382" width="70" height="56" rx="3" fill="#f59e0b33" stroke="#1c2744" stroke-width="0.5"/>
<text x="279" y="404" font-size="9" fill="#f59e0b" text-anchor="middle">9</text>
<circle cx="279" cy="416" r="7" fill="#f59e0b"/>
<text x="279" y="420" font-size="7" fill="#06080f" text-anchor="middle" font-weight="700">2</text>
<rect x="316" y="382" width="70" height="56" rx="3" fill="#f59e0b44" stroke="#1c2744" stroke-width="0.5"/>
<text x="351" y="414" font-size="9" fill="#f59e0b" text-anchor="middle">12</text>
<rect x="388" y="382" width="70" height="56" rx="3" fill="#ef444444" stroke="#1c2744" stroke-width="0.5"/>
<text x="423" y="414" font-size="9" fill="#ef4444" text-anchor="middle">15</text>

<!-- Row 2 (Unlikely) -->
<rect x="100" y="444" width="70" height="56" rx="3" fill="#10b98111" stroke="#1c2744" stroke-width="0.5"/>
<text x="135" y="476" font-size="9" fill="#10b981" text-anchor="middle">2</text>
<rect x="172" y="444" width="70" height="56" rx="3" fill="#10b98122" stroke="#1c2744" stroke-width="0.5"/>
<text x="207" y="466" font-size="9" fill="#10b981" text-anchor="middle">4</text>
<circle cx="207" cy="478" r="7" fill="#10b981"/>
<text x="207" y="482" font-size="7" fill="#06080f" text-anchor="middle" font-weight="700">1</text>
<rect x="244" y="444" width="70" height="56" rx="3" fill="#eab30822" stroke="#1c2744" stroke-width="0.5"/>
<text x="279" y="476" font-size="9" fill="#eab308" text-anchor="middle">6</text>
<rect x="316" y="444" width="70" height="56" rx="3" fill="#eab30833" stroke="#1c2744" stroke-width="0.5"/>
<text x="351" y="476" font-size="9" fill="#eab308" text-anchor="middle">8</text>
<rect x="388" y="444" width="70" height="56" rx="3" fill="#f59e0b33" stroke="#1c2744" stroke-width="0.5"/>
<text x="423" y="466" font-size="9" fill="#f59e0b" text-anchor="middle">10</text>
<circle cx="423" cy="478" r="7" fill="#f59e0b"/>
<text x="423" y="482" font-size="7" fill="#06080f" text-anchor="middle" font-weight="700">1</text>

<!-- Row 1 (Rare) -->
<rect x="100" y="506" width="70" height="56" rx="3" fill="#10b98111" stroke="#1c2744" stroke-width="0.5"/>
<text x="135" y="538" font-size="9" fill="#10b981" text-anchor="middle">1</text>
<rect x="172" y="506" width="70" height="56" rx="3" fill="#10b98111" stroke="#1c2744" stroke-width="0.5"/>
<text x="207" y="538" font-size="9" fill="#10b981" text-anchor="middle">2</text>
<rect x="244" y="506" width="70" height="56" rx="3" fill="#10b98122" stroke="#1c2744" stroke-width="0.5"/>
<text x="279" y="538" font-size="9" fill="#10b981" text-anchor="middle">3</text>
<rect x="316" y="506" width="70" height="56" rx="3" fill="#10b98122" stroke="#1c2744" stroke-width="0.5"/>
<text x="351" y="538" font-size="9" fill="#10b981" text-anchor="middle">4</text>
<rect x="388" y="506" width="70" height="56" rx="3" fill="#eab30822" stroke="#1c2744" stroke-width="0.5"/>
<text x="423" y="538" font-size="9" fill="#eab308" text-anchor="middle">5</text>

<!-- Risk List panel -->
<rect x="480" y="216" width="700" height="400" rx="10" fill="#141c32" stroke="#1c2744" stroke-width="1"/>
<text x="500" y="244" font-size="13" font-weight="600" fill="#e2e8f0">Risk List</text>

<!-- Risk table header -->
<rect x="496" y="256" width="668" height="28" rx="0" fill="#0f1628"/>
<text x="510" y="274" font-size="10" font-weight="600" fill="#6b7fa0">ID</text>
<text x="570" y="274" font-size="10" font-weight="600" fill="#6b7fa0">Risk Description</text>
<text x="860" y="274" font-size="10" font-weight="600" fill="#6b7fa0">Category</text>
<text x="950" y="274" font-size="10" font-weight="600" fill="#6b7fa0">Score</text>
<text x="1010" y="274" font-size="10" font-weight="600" fill="#6b7fa0">Severity</text>
<text x="1090" y="274" font-size="10" font-weight="600" fill="#6b7fa0">Status</text>

<!-- Risk rows -->
<line x1="496" y1="288" x2="1164" y2="288" stroke="#1c2744" stroke-width="0.5"/>
<text x="510" y="306" font-size="10" fill="#38bdf8" font-style="monospace">RSK-001</text>
<text x="570" y="306" font-size="10" fill="#e2e8f0">Sensor false positive rate exceeds 5% during...</text>
<text x="860" y="306" font-size="10" fill="#a0aec0">Technical</text>
<rect x="950" y="294" width="38" height="18" rx="4" fill="#ef444433"/>
<text x="959" y="307" font-size="10" font-weight="700" fill="#ef4444">25</text>
<rect x="1010" y="294" width="50" height="18" rx="4" fill="#ef444422"/>
<text x="1017" y="307" font-size="9" fill="#ef4444">Critical</text>
<text x="1090" y="306" font-size="10" fill="#f59e0b">Open</text>

<line x1="496" y1="318" x2="1164" y2="318" stroke="#1c2744" stroke-width="0.5"/>
<text x="510" y="336" font-size="10" fill="#38bdf8" font-style="monospace">RSK-002</text>
<text x="570" y="336" font-size="10" fill="#e2e8f0">Cloud service provider outage disrupts remote...</text>
<text x="860" y="336" font-size="10" fill="#a0aec0">External</text>
<rect x="950" y="324" width="38" height="18" rx="4" fill="#ef444433"/>
<text x="959" y="337" font-size="10" font-weight="700" fill="#ef4444">20</text>
<rect x="1010" y="324" width="50" height="18" rx="4" fill="#ef444422"/>
<text x="1017" y="337" font-size="9" fill="#ef4444">Critical</text>
<text x="1090" y="336" font-size="10" fill="#f59e0b">Open</text>

<line x1="496" y1="348" x2="1164" y2="348" stroke="#1c2744" stroke-width="0.5"/>
<text x="510" y="366" font-size="10" fill="#38bdf8" font-style="monospace">RSK-003</text>
<text x="570" y="366" font-size="10" fill="#e2e8f0">Firmware update mechanism vulnerable to...</text>
<text x="860" y="366" font-size="10" fill="#a0aec0">Security</text>
<rect x="950" y="354" width="38" height="18" rx="4" fill="#ef444433"/>
<text x="959" y="367" font-size="10" font-weight="700" fill="#ef4444">16</text>
<rect x="1010" y="354" width="50" height="18" rx="4" fill="#ef444422"/>
<text x="1017" y="367" font-size="9" fill="#ef4444">Critical</text>
<text x="1090" y="366" font-size="10" fill="#10b981">Mitigated</text>

<line x1="496" y1="378" x2="1164" y2="378" stroke="#1c2744" stroke-width="0.5"/>
<text x="510" y="396" font-size="10" fill="#38bdf8" font-style="monospace">RSK-004</text>
<text x="570" y="396" font-size="10" fill="#e2e8f0">Battery drain rate accelerates below -10°C...</text>
<text x="860" y="396" font-size="10" fill="#a0aec0">Technical</text>
<rect x="950" y="384" width="38" height="18" rx="4" fill="#f59e0b33"/>
<text x="959" y="397" font-size="10" font-weight="700" fill="#f59e0b">12</text>
<rect x="1010" y="384" width="38" height="18" rx="4" fill="#f59e0b22"/>
<text x="1017" y="397" font-size="9" fill="#f59e0b">High</text>
<text x="1090" y="396" font-size="10" fill="#f59e0b">Open</text>

<line x1="496" y1="408" x2="1164" y2="408" stroke="#1c2744" stroke-width="0.5"/>
<text x="510" y="426" font-size="10" fill="#38bdf8" font-style="monospace">RSK-005</text>
<text x="570" y="426" font-size="10" fill="#e2e8f0">RF interference from neighbouring systems...</text>
<text x="860" y="426" font-size="10" fill="#a0aec0">Technical</text>
<rect x="950" y="414" width="38" height="18" rx="4" fill="#f59e0b33"/>
<text x="959" y="427" font-size="10" font-weight="700" fill="#f59e0b">12</text>
<rect x="1010" y="414" width="38" height="18" rx="4" fill="#f59e0b22"/>
<text x="1017" y="427" font-size="9" fill="#f59e0b">High</text>
<text x="1090" y="426" font-size="10" fill="#f59e0b">Open</text>

<text x="830" y="580" font-size="10" fill="#6b7fa0" text-anchor="middle">Showing 5 of 10 risks · Click any row to view details</text>

<!-- Footer -->
<rect x="0" y="700" width="1200" height="20" fill="#06080f"/>
<text x="20" y="714" font-size="9" fill="#4a5370">ReqRight v2.6.0 · Based on INCOSE® GtWR v4 · ISO/IEC/IEEE 29148 · 15288</text>
</svg>
