<svg xmlns="http://www.w3.org/2000/svg" viewBox="0 0 1200 720" font-family="'Segoe UI','Helvetica Neue',Arial,sans-serif">
<rect width="1200" height="720" fill="#06080f"/>

<!-- Header -->
<rect x="0" y="0" width="1200" height="42" fill="#0f1628" stroke="#1c2744" stroke-width="1"/>
<text x="20" y="27" font-size="15" font-weight="700" fill="#38bdf8">RR</text>
<text x="42" y="27" font-size="13" font-weight="600" fill="#e2e8f0">ReqRight</text>
<rect x="0" y="42" width="1200" height="36" fill="#0a0f1c" stroke="#1c2744" stroke-width="1"/>
<!-- Trace tab active -->
<rect x="215" y="48" width="50" height="24" rx="5" fill="#38bdf822"/>
<text x="225" y="64" font-size="11" font-weight="600" fill="#38bdf8">Trace</text>

<!-- Toggle buttons -->
<rect x="24" y="90" width="130" height="30" rx="6" fill="#0f1628" stroke="#1c2744" stroke-width="0.5"/>
<text x="55" y="110" font-size="11" fill="#a0aec0">🌳 Hierarchy</text>
<rect x="160" y="90" width="160" height="30" rx="6" fill="#38bdf822" stroke="#38bdf844" stroke-width="0.5"/>
<text x="180" y="110" font-size="11" font-weight="600" fill="#38bdf8">⊞ Traceability Matrix</text>

<!-- Page header -->
<text x="24" y="150" font-size="18" font-weight="700" fill="#e2e8f0">Cross-Module Traceability Matrix</text>
<text x="24" y="168" font-size="12" fill="#a0aec0">Requirement ↔ Risk · Decision · Stakeholder · Interface · Use Case linkages</text>

<!-- Matrix card -->
<rect x="24" y="184" width="1156" height="500" rx="10" fill="#141c32" stroke="#1c2744" stroke-width="1"/>

<!-- Matrix headers -->
<rect x="24" y="184" width="1156" height="40" rx="10" fill="#0f1628"/>
<rect x="24" y="214" width="1156" height="10" fill="#0f1628"/>
<text x="40" y="210" font-size="10" font-weight="600" fill="#6b7fa0">REQUIREMENT</text>
<text x="280" y="210" font-size="10" font-weight="600" fill="#6b7fa0">SCORE</text>
<text x="330" y="210" font-size="10" font-weight="600" fill="#6b7fa0">PARENT</text>
<text x="440" y="210" font-size="10" font-weight="600" fill="#f59e0b">RISKS</text>
<text x="540" y="210" font-size="10" font-weight="600" fill="#8b5cf6">DECISIONS</text>
<text x="660" y="210" font-size="10" font-weight="600" fill="#10b981">STAKEHOLDERS</text>
<text x="800" y="210" font-size="10" font-weight="600" fill="#06b6d4">INTERFACES</text>
<text x="930" y="210" font-size="10" font-weight="600" fill="#ec4899">USE CASES</text>
<text x="1060" y="210" font-size="10" font-weight="600" fill="#6b7fa0">STATUS</text>

<!-- Row 1 - Well traced -->
<rect x="36" y="230" width="1132" height="38" rx="0" fill="transparent" stroke="#1c2744" stroke-width="0 0 0.5 0"/>
<text x="40" y="253" font-size="10" fill="#38bdf8" font-style="monospace">REQ-001</text>
<text x="100" y="253" font-size="10" fill="#e2e8f0">AegisGuard intrusion detection</text>
<rect x="280" y="242" width="34" height="16" rx="4" fill="#10b98122"/>
<text x="289" y="254" font-size="9" font-weight="700" fill="#10b981">94%</text>
<text x="330" y="253" font-size="10" fill="#a0aec0" font-style="monospace">SYS-ARCH</text>
<!-- Linked items -->
<rect x="440" y="242" width="60" height="16" rx="4" fill="#f59e0b11" stroke="#f59e0b33" stroke-width="0.5"/>
<text x="451" y="254" font-size="8" fill="#f59e0b">RSK-001 ⚠</text>
<rect x="540" y="242" width="80" height="16" rx="4" fill="#8b5cf611" stroke="#8b5cf633" stroke-width="0.5"/>
<text x="551" y="254" font-size="8" fill="#8b5cf6">DEC-002</text>
<rect x="660" y="242" width="96" height="16" rx="4" fill="#10b98111" stroke="#10b98133" stroke-width="0.5"/>
<text x="671" y="254" font-size="8" fill="#10b981">STK-001, STK-003</text>
<rect x="800" y="242" width="80" height="16" rx="4" fill="#06b6d411" stroke="#06b6d433" stroke-width="0.5"/>
<text x="811" y="254" font-size="8" fill="#06b6d4">IFC-001</text>
<rect x="930" y="242" width="80" height="16" rx="4" fill="#ec489911" stroke="#ec489933" stroke-width="0.5"/>
<text x="941" y="254" font-size="8" fill="#ec4899">UC-001</text>
<rect x="1060" y="242" width="52" height="16" rx="4" fill="#10b98122"/>
<text x="1067" y="254" font-size="8" fill="#10b981">Approved</text>

<!-- Row 2 -->
<rect x="36" y="270" width="1132" height="38" rx="0" fill="transparent" stroke="#1c2744" stroke-width="0 0 0.5 0"/>
<text x="40" y="293" font-size="10" fill="#38bdf8" font-style="monospace">REQ-002</text>
<text x="100" y="293" font-size="10" fill="#e2e8f0">Sensor processing 200ms</text>
<rect x="280" y="282" width="34" height="16" rx="4" fill="#10b98122"/>
<text x="289" y="294" font-size="9" font-weight="700" fill="#10b981">88%</text>
<text x="330" y="293" font-size="10" fill="#a0aec0" font-style="monospace">REQ-001</text>
<rect x="440" y="282" width="80" height="16" rx="4" fill="#f59e0b11" stroke="#f59e0b33" stroke-width="0.5"/>
<text x="451" y="294" font-size="8" fill="#f59e0b">RSK-004, RSK-005</text>
<rect x="540" y="282" width="60" height="16" rx="4" fill="#8b5cf611" stroke="#8b5cf633" stroke-width="0.5"/>
<text x="551" y="294" font-size="8" fill="#8b5cf6">DEC-001</text>
<rect x="660" y="282" width="60" height="16" rx="4" fill="#10b98111" stroke="#10b98133" stroke-width="0.5"/>
<text x="671" y="294" font-size="8" fill="#10b981">STK-002</text>
<rect x="800" y="282" width="80" height="16" rx="4" fill="#06b6d411" stroke="#06b6d433" stroke-width="0.5"/>
<text x="811" y="294" font-size="8" fill="#06b6d4">IFC-002</text>
<text x="930" y="293" font-size="9" fill="#6b7fa0">—</text>
<rect x="1060" y="282" width="52" height="16" rx="4" fill="#10b98122"/>
<text x="1067" y="294" font-size="8" fill="#10b981">Approved</text>

<!-- Row 3 - Orphan warning -->
<rect x="36" y="310" width="1132" height="38" rx="0" fill="#f59e0b06" stroke="#1c2744" stroke-width="0 0 0.5 0"/>
<text x="40" y="333" font-size="10" fill="#38bdf8" font-style="monospace">REQ-003</text>
<text x="100" y="333" font-size="10" fill="#e2e8f0">Central hub alerts</text>
<rect x="280" y="322" width="34" height="16" rx="4" fill="#f59e0b22"/>
<text x="289" y="334" font-size="9" font-weight="700" fill="#f59e0b">72%</text>
<text x="330" y="333" font-size="10" fill="#f59e0b">⚠ Orphan</text>
<text x="440" y="333" font-size="9" fill="#6b7fa0">—</text>
<text x="540" y="333" font-size="9" fill="#6b7fa0">—</text>
<text x="660" y="333" font-size="9" fill="#6b7fa0">—</text>
<text x="800" y="333" font-size="9" fill="#6b7fa0">—</text>
<text x="930" y="333" font-size="9" fill="#6b7fa0">—</text>
<rect x="1060" y="322" width="34" height="16" rx="4" fill="#f59e0b22"/>
<text x="1067" y="334" font-size="8" fill="#f59e0b">Draft</text>

<!-- Row 4 -->
<rect x="36" y="350" width="1132" height="38" rx="0" fill="transparent" stroke="#1c2744" stroke-width="0 0 0.5 0"/>
<text x="40" y="373" font-size="10" fill="#38bdf8" font-style="monospace">REQ-004</text>
<text x="100" y="373" font-size="10" fill="#e2e8f0">AES-256 encryption</text>
<rect x="280" y="362" width="34" height="16" rx="4" fill="#10b98122"/>
<text x="289" y="374" font-size="9" font-weight="700" fill="#10b981">91%</text>
<text x="330" y="373" font-size="10" fill="#a0aec0" font-style="monospace">SYS-ARCH</text>
<rect x="440" y="362" width="60" height="16" rx="4" fill="#f59e0b11" stroke="#f59e0b33" stroke-width="0.5"/>
<text x="451" y="374" font-size="8" fill="#f59e0b">RSK-003 ⚠</text>
<rect x="540" y="362" width="80" height="16" rx="4" fill="#8b5cf611" stroke="#8b5cf633" stroke-width="0.5"/>
<text x="551" y="374" font-size="8" fill="#8b5cf6">DEC-003, DEC-004</text>
<rect x="660" y="362" width="60" height="16" rx="4" fill="#10b98111" stroke="#10b98133" stroke-width="0.5"/>
<text x="671" y="374" font-size="8" fill="#10b981">STK-005</text>
<rect x="800" y="362" width="60" height="16" rx="4" fill="#06b6d411" stroke="#06b6d433" stroke-width="0.5"/>
<text x="811" y="374" font-size="8" fill="#06b6d4">IFC-004</text>
<rect x="930" y="362" width="80" height="16" rx="4" fill="#ec489911" stroke="#ec489933" stroke-width="0.5"/>
<text x="941" y="374" font-size="8" fill="#ec4899">UC-003</text>
<rect x="1060" y="362" width="52" height="16" rx="4" fill="#10b98122"/>
<text x="1067" y="374" font-size="8" fill="#10b981">Approved</text>

<!-- Row 5 -->
<rect x="36" y="390" width="1132" height="38" rx="0" fill="transparent" stroke="#1c2744" stroke-width="0 0 0.5 0"/>
<text x="40" y="413" font-size="10" fill="#38bdf8" font-style="monospace">REQ-005</text>
<text x="100" y="413" font-size="10" fill="#e2e8f0">System data processing</text>
<rect x="280" y="402" width="34" height="16" rx="4" fill="#ef444422"/>
<text x="289" y="414" font-size="9" font-weight="700" fill="#ef4444">58%</text>
<text x="330" y="413" font-size="10" fill="#a0aec0" font-style="monospace">REQ-002</text>
<text x="440" y="413" font-size="9" fill="#6b7fa0">—</text>
<text x="540" y="413" font-size="9" fill="#6b7fa0">—</text>
<rect x="660" y="402" width="60" height="16" rx="4" fill="#10b98111" stroke="#10b98133" stroke-width="0.5"/>
<text x="671" y="414" font-size="8" fill="#10b981">STK-001</text>
<text x="800" y="413" font-size="9" fill="#6b7fa0">—</text>
<text x="930" y="413" font-size="9" fill="#6b7fa0">—</text>
<rect x="1060" y="402" width="34" height="16" rx="4" fill="#f59e0b22"/>
<text x="1067" y="414" font-size="8" fill="#f59e0b">Draft</text>

<!-- Row 6 -->
<rect x="36" y="430" width="1132" height="38" rx="0" fill="transparent" stroke="#1c2744" stroke-width="0 0 0.5 0"/>
<text x="40" y="453" font-size="10" fill="#38bdf8" font-style="monospace">REQ-006</text>
<text x="100" y="453" font-size="10" fill="#e2e8f0">Battery module maintenance</text>
<rect x="280" y="442" width="34" height="16" rx="4" fill="#10b98122"/>
<text x="289" y="454" font-size="9" font-weight="700" fill="#10b981">86%</text>
<text x="330" y="453" font-size="10" fill="#a0aec0" font-style="monospace">SYS-ARCH</text>
<rect x="440" y="442" width="60" height="16" rx="4" fill="#f59e0b11" stroke="#f59e0b33" stroke-width="0.5"/>
<text x="451" y="454" font-size="8" fill="#f59e0b">RSK-004 ⚠</text>
<text x="540" y="453" font-size="9" fill="#6b7fa0">—</text>
<rect x="660" y="442" width="60" height="16" rx="4" fill="#10b98111" stroke="#10b98133" stroke-width="0.5"/>
<text x="671" y="454" font-size="8" fill="#10b981">STK-004</text>
<text x="800" y="453" font-size="9" fill="#6b7fa0">—</text>
<rect x="930" y="442" width="60" height="16" rx="4" fill="#ec489911" stroke="#ec489933" stroke-width="0.5"/>
<text x="941" y="454" font-size="8" fill="#ec4899">UC-002</text>
<rect x="1060" y="442" width="62" height="16" rx="4" fill="#8b5cf622"/>
<text x="1067" y="454" font-size="8" fill="#8b5cf6">Reviewed</text>

<!-- Summary row -->
<rect x="36" y="520" width="1132" height="44" rx="0" fill="#0f1628"/>
<text x="48" y="546" font-size="11" font-weight="600" fill="#a0aec0">Traceability Summary</text>
<text x="280" y="546" font-size="10" fill="#10b981">Avg: 82%</text>
<text x="440" y="546" font-size="10" fill="#f59e0b">6 linked</text>
<text x="540" y="546" font-size="10" fill="#8b5cf6">4 linked</text>
<text x="660" y="546" font-size="10" fill="#10b981">5 linked</text>
<text x="800" y="546" font-size="10" fill="#06b6d4">4 linked</text>
<text x="930" y="546" font-size="10" fill="#ec4899">4 linked</text>

<!-- Orphan warning -->
<rect x="36" y="574" width="1132" height="36" rx="6" fill="#f59e0b08" stroke="#f59e0b33" stroke-width="0.5"/>
<text x="56" y="596" font-size="11" fill="#f59e0b">⚠ 1 orphan requirement (REQ-003) — missing parent trace. 3 requirements with no risk linkage.</text>

<!-- More rows indicator -->
<text x="600" y="640" font-size="10" fill="#6b7fa0" text-anchor="middle">Showing 6 of 29 requirements · Scroll for full matrix</text>

<!-- Footer -->
<rect x="0" y="700" width="1200" height="20" fill="#06080f"/>
<text x="20" y="714" font-size="9" fill="#4a5370">ReqRight v2.6.0 · Based on INCOSE® GtWR v4 · ISO/IEC/IEEE 29148 · 15288</text>
</svg>
